<svg width="85" height="85" viewBox="0 0 85 85" fill="none" xmlns="http://www.w3.org/2000/svg">
<circle cx="42.5" cy="42.5" r="42.5" fill="#272826"/>
<path d="M51.6273 48.36C51.6273 51.564 49.0353 53.958 43.8513 55.542C41.5113 56.262 39.1173 56.73 36.6693 56.946C36.3813 56.982 36.1473 57 35.9673 57C34.8873 57 34.3473 56.46 34.3473 55.38C34.3473 54.408 34.8873 53.868 35.9673 53.76C38.5593 53.472 40.8633 53.04 42.8793 52.464C46.5513 51.348 48.3873 49.98 48.3873 48.36C48.3873 47.712 47.5053 46.668 45.7413 45.228C44.8053 44.472 44.1033 43.878 43.6353 43.446C43.1673 43.014 42.6633 42.402 42.1233 41.61C41.6193 40.782 41.3673 39.918 41.3673 39.018C41.3673 38.082 41.6553 37.2 42.2313 36.372C42.8433 35.544 43.4193 34.896 43.9593 34.428C44.5353 33.924 44.9313 33.582 45.1473 33.402C45.3633 33.222 45.5073 33.096 45.5793 33.024C45.6513 32.952 45.7773 32.844 45.9573 32.7C46.1373 32.52 46.2633 32.394 46.3353 32.322C46.4073 32.214 46.5153 32.088 46.6593 31.944C46.8033 31.8 46.9113 31.692 46.9833 31.62C47.0193 31.548 47.0733 31.44 47.1453 31.296C47.2533 31.116 47.3073 30.864 47.3073 30.54C47.3073 29.244 46.1553 28.596 43.8513 28.596C41.5473 28.596 39.4953 28.956 37.6953 29.676C37.1553 29.892 36.7593 30 36.5073 30C35.4273 30 34.8873 29.46 34.8873 28.38C34.8873 27.66 35.4273 27.084 36.5073 26.652C38.6673 25.788 40.8633 25.356 43.0953 25.356C45.3633 25.356 47.1633 25.806 48.4953 26.706C49.8633 27.57 50.5473 28.848 50.5473 30.54C50.5473 31.296 50.3313 32.07 49.8993 32.862C49.4673 33.618 49.0353 34.194 48.6033 34.59C48.2073 34.986 47.6313 35.526 46.8753 36.21C45.3633 37.506 44.6073 38.496 44.6073 39.18C44.6073 39.9 45.2193 40.71 46.4433 41.61C47.0193 42.042 47.4693 42.42 47.7933 42.744C50.3493 44.832 51.6273 46.704 51.6273 48.36Z" fill="white"/>
</svg>
