<svg width="85" height="85" viewBox="0 0 85 85" fill="none" xmlns="http://www.w3.org/2000/svg">
<circle cx="42.5" cy="42.5" r="42.5" fill="#272826"/>
<path d="M51.1673 25.356C52.2473 25.356 52.7873 25.896 52.7873 26.976C52.7873 27.876 52.2473 28.416 51.1673 28.596C47.7113 29.172 44.8313 30.036 42.5273 31.188C41.9513 31.476 41.5913 31.62 41.4473 31.62C40.3673 31.62 39.8273 31.08 39.8273 30C39.8273 29.28 40.3673 28.65 41.4473 28.11C43.8233 26.922 46.8293 26.022 50.4653 25.41C50.6813 25.374 50.9153 25.356 51.1673 25.356ZM38.7473 28.38C38.7473 28.632 38.6393 29.082 38.4233 29.73C38.2073 30.378 38.0993 31.026 38.0993 31.674C38.0993 32.322 38.1713 32.844 38.3153 33.24C38.4953 33.636 38.7653 34.104 39.1253 34.644C39.4853 35.148 39.7913 35.58 40.0433 35.94C40.2953 36.264 40.6373 36.696 41.0693 37.236C41.5013 37.776 41.7533 38.1 41.8253 38.208C41.8973 38.28 42.2573 38.712 42.9053 39.504C43.5533 40.26 44.1293 40.998 44.6333 41.718C45.1733 42.402 45.7673 43.248 46.4153 44.256C47.7833 46.38 48.4673 48.342 48.4673 50.142C48.4673 51.942 47.7113 53.544 46.1993 54.948C44.7233 56.316 42.4193 57 39.2873 57C37.1633 57 35.0033 56.244 32.8073 54.732C31.7273 53.976 31.1873 53.31 31.1873 52.734C31.1873 51.654 31.7273 51.114 32.8073 51.114C33.1673 51.114 33.7433 51.384 34.5353 51.924C36.2993 53.148 37.8833 53.76 39.2873 53.76C43.2473 53.76 45.2273 52.608 45.2273 50.304C45.2273 49.404 44.9393 48.378 44.3633 47.226C43.8233 46.074 43.2653 45.138 42.6893 44.418C42.1493 43.662 41.4653 42.798 40.6373 41.826C36.7853 37.29 34.8593 34.068 34.8593 32.16C34.8593 30.936 35.0573 29.73 35.4533 28.542C35.8493 27.354 36.4073 26.76 37.1273 26.76C38.2073 26.76 38.7473 27.3 38.7473 28.38Z" fill="white"/>
</svg>
