<svg width="85" height="85" viewBox="0 0 85 85" fill="none" xmlns="http://www.w3.org/2000/svg">
<circle cx="42.5" cy="42.5" r="42.5" fill="#272826"/>
<path d="M39.2873 30.54L39.5033 31.62C39.5033 32.7 38.9633 33.24 37.8833 33.24C37.3073 33.24 36.8573 32.952 36.5333 32.376C36.2093 31.8 36.0473 31.188 36.0473 30.54C36.0473 29.136 36.6593 27.93 37.8833 26.922C39.1073 25.878 40.4393 25.356 41.8793 25.356C43.3193 25.356 44.5073 25.824 45.4433 26.76C46.3793 27.66 46.8473 29.028 46.8473 30.864C46.8473 32.088 46.1633 33.78 44.7953 35.94C44.3633 36.588 43.6613 37.668 42.6893 39.18C39.7013 43.788 38.2073 47.568 38.2073 50.52C38.2073 51.492 39.0173 52.284 40.6373 52.896C42.2573 53.472 44.5073 53.76 47.3873 53.76C48.4673 53.76 49.0073 54.3 49.0073 55.38C49.0073 56.46 48.4673 57 47.3873 57C44.2553 57 41.5913 56.586 39.3953 55.758C36.4433 54.642 34.9673 52.896 34.9673 50.52C34.9673 46.776 36.6053 42.456 39.8813 37.56C42.3653 33.816 43.6073 31.584 43.6073 30.864C43.6073 29.352 43.0673 28.596 41.9873 28.596C41.4113 28.596 40.8173 28.794 40.2053 29.19C39.5933 29.586 39.2873 30.036 39.2873 30.54Z" fill="white"/>
</svg>
