<svg width="85" height="85" viewBox="0 0 85 85" fill="none" xmlns="http://www.w3.org/2000/svg">
<circle cx="42.5" cy="42.5" r="42.5" fill="#272826"/>
<path d="M43.7973 46.632L37.0473 47.82C35.9673 47.82 35.4273 47.28 35.4273 46.2C35.4273 45.336 35.9673 44.796 37.0473 44.58C39.5313 44.076 42.0513 43.626 44.6073 43.23C45.3273 40.098 45.6873 37.524 45.6873 35.508C45.6873 30.9 43.7073 28.596 39.7473 28.596C39.0633 28.596 38.1633 28.812 37.0473 29.244C35.9673 29.64 35.4273 30.072 35.4273 30.54C35.4273 30.9 35.6973 31.332 36.2373 31.836C36.7773 32.34 37.0473 32.826 37.0473 33.294C37.0473 33.726 36.9033 34.104 36.6153 34.428C36.3273 34.716 35.8953 34.86 35.3193 34.86C34.7433 34.86 34.0773 34.374 33.3213 33.402C32.5653 32.43 32.1873 31.476 32.1873 30.54C32.1873 29.028 32.9973 27.786 34.6173 26.814C36.2373 25.842 37.9473 25.356 39.7473 25.356C42.9513 25.356 45.3453 26.436 46.9293 28.596C48.2613 30.396 48.9273 32.844 48.9273 35.94C48.9273 37.596 48.6393 39.864 48.0633 42.744C49.8993 42.528 51.2673 42.42 52.1673 42.42C53.2473 42.42 53.7873 42.96 53.7873 44.04C53.7873 45.12 53.2473 45.66 52.1673 45.66C51.0873 45.66 49.4673 45.804 47.3073 46.092C45.6513 51.852 44.7513 54.948 44.6073 55.38C44.2473 56.46 43.7073 57 42.9873 57C41.9073 57 41.3673 56.46 41.3673 55.38C41.3673 55.056 41.4033 54.786 41.4753 54.57C41.5473 54.354 42.3213 51.708 43.7973 46.632Z" fill="white"/>
</svg>
