<svg width="85" height="85" viewBox="0 0 85 85" fill="none" xmlns="http://www.w3.org/2000/svg">
<circle cx="42.5" cy="42.5" r="42.5" fill="#272826"/>
<path d="M47.7873 29.568L46.8153 47.874C46.8153 50.07 47.0493 52.338 47.5173 54.678C47.5533 54.858 47.5713 55.092 47.5713 55.38C47.5713 56.46 47.0313 57 45.9513 57C45.0873 57 44.5473 56.46 44.3313 55.38C43.8273 52.86 43.5753 50.538 43.5753 48.414C43.5753 46.29 43.7553 42.618 44.1153 37.398C40.3713 43.986 35.8353 49.296 30.5073 53.328C29.1753 54.336 28.2753 54.84 27.8073 54.84C26.7273 54.84 26.1873 54.336 26.1873 53.328C26.1873 53.04 26.3313 52.734 26.6193 52.41C26.9433 52.086 27.5913 51.564 28.5633 50.844C31.0473 48.972 33.5313 46.542 36.0153 43.554C38.4993 40.53 40.4973 37.506 42.0093 34.482C43.5573 31.458 44.3313 28.956 44.3313 26.976C44.3313 25.896 44.8713 25.356 45.9513 25.356C46.7073 25.356 47.2473 25.878 47.5713 26.922C47.7153 27.354 47.7873 28.236 47.7873 29.568Z" fill="white"/>
</svg>
