<svg width="85" height="85" viewBox="0 0 85 85" fill="none" xmlns="http://www.w3.org/2000/svg">
<circle cx="42.5" cy="42.5" r="42.5" fill="#272826"/>
<path d="M37.6673 45.12C37.6673 44.328 38.2253 43.5 39.3413 42.636C40.4933 41.772 41.8793 41.34 43.4993 41.34C45.1193 41.34 46.6133 41.898 47.9813 43.014C49.3853 44.094 50.0873 45.516 50.0873 47.28C50.0873 50.016 48.7733 52.32 46.1453 54.192C43.5533 56.064 40.7273 57 37.6673 57C36.0113 57 34.5173 56.334 33.1853 55.002C31.8533 53.67 31.1873 52.176 31.1873 50.52C31.1873 45.66 33.0593 41.106 36.8033 36.858C40.0793 33.15 44.2913 29.532 49.4393 26.004C50.0153 25.572 50.5913 25.356 51.1673 25.356C52.2473 25.356 52.7873 25.896 52.7873 26.976C52.7873 27.408 52.0493 28.146 50.5733 29.19C49.0973 30.198 47.6933 31.224 46.3613 32.268C45.0653 33.276 43.6073 34.536 41.9873 36.048C40.3673 37.56 39.0533 39.018 38.0453 40.422C35.6333 43.77 34.4273 47.136 34.4273 50.52C34.4273 51.312 34.7693 52.05 35.4533 52.734C36.1373 53.418 36.8753 53.76 37.6673 53.76C39.7913 53.76 41.8433 53.148 43.8233 51.924C45.8393 50.664 46.8473 49.116 46.8473 47.28C46.8473 46.416 46.4693 45.75 45.7133 45.282C44.9573 44.814 44.1833 44.58 43.3913 44.58C42.3473 44.58 41.4113 45.012 40.5833 45.876C40.0793 46.452 39.6473 46.74 39.2873 46.74C38.2073 46.74 37.6673 46.2 37.6673 45.12Z" fill="white"/>
</svg>
