<svg width="85" height="85" viewBox="0 0 85 85" fill="none" xmlns="http://www.w3.org/2000/svg">
<circle cx="42.5" cy="42.5" r="42.5" fill="#272826"/>
<path d="M50.0073 57C49.2873 57 48.5673 56.568 47.8473 55.704C47.1273 54.804 46.7673 53.796 46.7673 52.68C46.7673 50.016 46.9473 47.784 47.3073 45.984C46.1193 46.848 44.4453 47.28 42.2853 47.28C40.1613 47.28 38.3073 46.38 36.7233 44.58C35.1393 42.744 34.3473 40.656 34.3473 38.316C34.3473 34.932 35.3913 31.152 37.4793 26.976C38.0193 25.896 38.5953 25.356 39.2073 25.356C40.2873 25.356 40.8273 25.896 40.8273 26.976C40.8273 27.228 40.6833 27.642 40.3953 28.218C38.5233 31.962 37.5873 35.292 37.5873 38.208C37.5873 39.72 38.0373 41.07 38.9373 42.258C39.8733 43.446 40.9713 44.04 42.2313 44.04C43.5273 44.04 44.4993 43.86 45.1473 43.5C45.8673 43.14 46.4793 42.78 46.9833 42.42C48.0273 41.7 48.8553 41.34 49.4673 41.34C50.5473 41.34 51.0873 41.88 51.0873 42.96C51.0873 43.176 50.9073 44.202 50.5473 46.038C50.1873 47.874 50.0073 50.088 50.0073 52.68C50.0073 53.04 50.2773 53.472 50.8173 53.976C51.3573 54.48 51.6273 54.948 51.6273 55.38C51.6273 56.46 51.0873 57 50.0073 57Z" fill="white"/>
</svg>
