<?xml version="1.0" encoding="utf-8"?>
<!-- Generator: Adobe Illustrator 26.5.0, SVG Export Plug-In . SVG Version: 6.00 Build 0)  -->
<svg version="1.1" id="Layer_1" xmlns="http://www.w3.org/2000/svg" xmlns:xlink="http://www.w3.org/1999/xlink" x="0px" y="0px"
	 viewBox="0 0 122.9 122.9" style="enable-background:new 0 0 122.9 122.9;" xml:space="preserve">
<style type="text/css">
	.st0{fill:#FFFFFF;}
</style>
<path class="st0" d="M61.4,0c33.9,0,61.5,27.5,61.5,61.4s-27.5,61.5-61.4,61.5C27.5,122.9,0,95.4,0,61.5C0,45.2,6.5,29.5,18,18
	C29.5,6.5,45.1,0,61.4,0z M52.5,58.4c2.9-2,4.4-4.6,4.1-10.6V32.5c0-2.1-3.9-2.4-4.1,0l-0.2,12.5c0,1-0.8,1.8-1.8,1.8
	s-1.8-0.8-1.8-1.8l0.2-12.9c0-2.3-3.8-2.5-3.8,0c0,3.6-0.2,9.3-0.2,12.9c0.1,0.8-0.4,1.6-1.3,1.7c-0.8,0.1-1.6-0.4-1.7-1.3
	c0-0.2,0-0.3,0-0.5l0.2-12.8c-0.1-1.1-1.1-2-2.3-1.9c-0.4,0-0.7,0.2-1,0.4c-1.4,0.9-1.1,2.7-1.2,4.2l-0.5,14.7
	c0.1,4.3,1.2,7.7,4.5,9.2c0.6,0.3,1.3,0.4,2,0.5l-1.1,30.1c-0.1,2.1,1.6,3.8,3.7,3.9c0,0,0,0,0.1,0h0.5c2.3,0,4.2-2,4.2-4.3
	c0,0,0,0,0,0l-1-29.6C51,59.1,51.8,58.8,52.5,58.4L52.5,58.4z M70.6,88.2l-0.1-26.4c-11.3-6.5-7.7-31.6,3.6-31.5
	c13.7,0.2,15.3,28.3,3.6,31.4l0.9,26.6C78.7,94.4,70.5,95,70.6,88.2L70.6,88.2z M99.3,23.6C78.4,2.7,44.5,2.7,23.6,23.7
	S2.8,78.5,23.7,99.3s54.8,20.9,75.7-0.1c10-10,15.6-23.7,15.6-37.8C115,47.2,109.4,33.6,99.3,23.6z"/>
</svg>
